<?xml version="1.0" encoding="utf-8" ?>
<svg baseProfile="tiny" height="1740" shape-rendering="crispEdges" version="1.2" viewBox="0 0 2730 1740" width="2730" xmlns="http://www.w3.org/2000/svg" xmlns:ev="http://www.w3.org/2001/xml-events" xmlns:xlink="http://www.w3.org/1999/xlink"><title>bmp2svg precise</title><desc>Автоматическая векторизация без искажений геометрии</desc><defs /><rect fill="#808080" height="1740" width="2730" x="0" y="0" /><path d="M1802,1736 L1802,1739 L1806,1739 L1806,1736 Z" fill="#c8c8c8" fill-rule="evenodd" shape-rendering="crispEdges" stroke="none" /><path d="M1751,1736 L1751,1739 L1755,1739 L1755,1736 Z" fill="#c8c8c8" fill-rule="evenodd" shape-rendering="crispEdges" stroke="none" /><path d="M1571,1736 L1571,1739 L1575,1739 L1575,1736 Z" fill="#c8c8c8" fill-rule="evenodd" shape-rendering="crispEdges" stroke="none" /><path d="M980,1736 L980,1739 L984,1739 L984,1736 Z" fill="#c8c8c8" fill-rule="evenodd" shape-rendering="crispEdges" stroke="none" /><path d="M677,1736 L677,1739 L681,1739 L681,1736 Z" fill="#c8c8c8" fill-rule="evenodd" shape-rendering="crispEdges" stroke="none" /><path d="M263,260 L263,276 L267,276 L267,260 Z" fill="#c8c8c8" fill-rule="evenodd" shape-rendering="crispEdges" stroke="none" /><path d="M2726,1547 L2726,1569 L2729,1569 L2729,1547 Z" fill="#00a8a8" fill-rule="evenodd" shape-rendering="crispEdges" stroke="none" /><path d="M713,806 L701,812 L701,816 L713,822 L720,822 L720,816 L750,816 L750,812 L720,812 L720,806 Z" fill="#00005a" fill-rule="evenodd" shape-rendering="crispEdges" stroke="none" /><path d="M917,764 L917,801 L921,801 L921,764 Z" fill="#00005a" fill-rule="evenodd" shape-rendering="crispEdges" stroke="none" /><path d="M713,761 L701,767 L701,771 L713,777 L720,777 L720,771 L750,771 L750,767 L720,767 L720,761 Z" fill="#00005a" fill-rule="evenodd" shape-rendering="crispEdges" stroke="none" /><path d="M917,719 L917,753 L921,753 L921,719 Z" fill="#00005a" fill-rule="evenodd" shape-rendering="crispEdges" stroke="none" /><path d="M890,719 L890,756 L894,756 L894,719 Z" fill="#00005a" fill-rule="evenodd" shape-rendering="crispEdges" stroke="none" /><path d="M713,716 L701,722 L701,726 L713,732 L720,732 L720,726 L750,726 L750,722 L720,722 L720,716 Z" fill="#00005a" fill-rule="evenodd" shape-rendering="crispEdges" stroke="none" /><path d="M917,674 L917,708 L921,708 L921,674 Z" fill="#00005a" fill-rule="evenodd" shape-rendering="crispEdges" stroke="none" /><path d="M890,674 L890,708 L894,708 L894,674 Z" fill="#00005a" fill-rule="evenodd" shape-rendering="crispEdges" stroke="none" /><path d="M863,674 L863,711 L867,711 L867,674 Z" fill="#00005a" fill-rule="evenodd" shape-rendering="crispEdges" stroke="none" /><path d="M713,671 L701,677 L701,681 L713,687 L720,687 L720,681 L750,681 L750,677 L720,677 L720,671 Z" fill="#00005a" fill-rule="evenodd" shape-rendering="crispEdges" stroke="none" /><path d="M968,629 L968,713 L800,713 L800,717 L972,717 L972,629 Z" fill="#00005a" fill-rule="evenodd" shape-rendering="crispEdges" stroke="none" /><path d="M995,626 L995,758 L800,758 L800,762 L999,762 L999,626 Z" fill="#00005a" fill-rule="evenodd" shape-rendering="crispEdges" stroke="none" /><path d="M890,626 L890,663 L894,663 L894,626 Z" fill="#00005a" fill-rule="evenodd" shape-rendering="crispEdges" stroke="none" /><path d="M863,626 L863,663 L867,663 L867,626 Z" fill="#00005a" fill-rule="evenodd" shape-rendering="crispEdges" stroke="none" /><path d="M941,614 L941,668 L800,668 L800,672 L945,672 L945,614 Z" fill="#00005a" fill-rule="evenodd" shape-rendering="crispEdges" stroke="none" /><path d="M836,614 L836,666 L840,666 L840,614 Z" fill="#00005a" fill-rule="evenodd" shape-rendering="crispEdges" stroke="none" /><path d="M1022,611 L1022,803 L800,803 L800,807 L1026,807 L1026,611 Z" fill="#00005a" fill-rule="evenodd" shape-rendering="crispEdges" stroke="none" /><path d="M917,611 L917,663 L921,663 L921,611 Z" fill="#00005a" fill-rule="evenodd" shape-rendering="crispEdges" stroke="none" /><path d="M2726,410 L2726,414 L2729,414 L2729,410 Z" fill="#00005a" fill-rule="evenodd" shape-rendering="crispEdges" stroke="none" /><path d="M2726,320 L2726,342 L2729,342 L2729,320 Z" fill="#00005a" fill-rule="evenodd" shape-rendering="crispEdges" stroke="none" /><path d="M719,809 L719,813 L750,813 L750,809 Z" fill="#00008c" fill-rule="evenodd" shape-rendering="crispEdges" stroke="none" /><path d="M713,803 L701,809 L701,813 L708,813 L720,807 L720,803 Z" fill="#00008c" fill-rule="evenodd" shape-rendering="crispEdges" stroke="none" /><path d="M719,764 L719,768 L750,768 L750,764 Z" fill="#00008c" fill-rule="evenodd" shape-rendering="crispEdges" stroke="none" /><path d="M713,758 L701,764 L701,768 L708,768 L720,762 L720,758 Z" fill="#00008c" fill-rule="evenodd" shape-rendering="crispEdges" stroke="none" /><path d="M914,719 L914,753 L918,753 L918,719 Z" fill="#00008c" fill-rule="evenodd" shape-rendering="crispEdges" stroke="none" /><path d="M719,719 L719,723 L750,723 L750,719 Z" fill="#00008c" fill-rule="evenodd" shape-rendering="crispEdges" stroke="none" /><path d="M713,713 L701,719 L701,723 L708,723 L720,717 L720,713 Z" fill="#00008c" fill-rule="evenodd" shape-rendering="crispEdges" stroke="none" /><path d="M914,674 L914,708 L918,708 L918,674 Z" fill="#00008c" fill-rule="evenodd" shape-rendering="crispEdges" stroke="none" /><path d="M887,674 L887,708 L891,708 L891,674 Z" fill="#00008c" fill-rule="evenodd" shape-rendering="crispEdges" stroke="none" /><path d="M719,674 L719,678 L750,678 L750,674 Z" fill="#00008c" fill-rule="evenodd" shape-rendering="crispEdges" stroke="none" /><path d="M713,668 L701,674 L701,678 L708,678 L720,672 L720,668 Z" fill="#00008c" fill-rule="evenodd" shape-rendering="crispEdges" stroke="none" /><path d="M965,629 L965,710 L864,710 L864,674 L860,674 L860,710 L800,710 L800,714 L969,714 L969,629 Z" fill="#00008c" fill-rule="evenodd" shape-rendering="crispEdges" stroke="none" /><path d="M992,626 L992,755 L891,755 L891,719 L887,719 L887,755 L800,755 L800,759 L996,759 L996,626 Z" fill="#00008c" fill-rule="evenodd" shape-rendering="crispEdges" stroke="none" /><path d="M887,626 L887,663 L891,663 L891,626 Z" fill="#00008c" fill-rule="evenodd" shape-rendering="crispEdges" stroke="none" /><path d="M860,626 L860,663 L864,663 L864,626 Z" fill="#00008c" fill-rule="evenodd" shape-rendering="crispEdges" stroke="none" /><path d="M1019,614 L1019,800 L918,800 L918,764 L914,764 L914,800 L800,800 L800,804 L1023,804 L1023,614 Z" fill="#00008c" fill-rule="evenodd" shape-rendering="crispEdges" stroke="none" /><path d="M914,614 L914,663 L918,663 L918,614 Z" fill="#00008c" fill-rule="evenodd" shape-rendering="crispEdges" stroke="none" /><path d="M833,611 L833,665 L800,665 L800,669 L942,669 L942,611 L938,611 L938,665 L837,665 L837,611 Z" fill="#00008c" fill-rule="evenodd" shape-rendering="crispEdges" stroke="none" /><path d="M2726,407 L2726,411 L2729,411 L2729,407 Z" fill="#00008c" fill-rule="evenodd" shape-rendering="crispEdges" stroke="none" /><path d="M848,425 L848,429 L873,429 L873,425 Z" fill="#464646" fill-rule="evenodd" shape-rendering="crispEdges" stroke="none" /><path d="M701,425 L701,429 L732,429 L732,425 Z" fill="#464646" fill-rule="evenodd" shape-rendering="crispEdges" stroke="none" /><path d="M422,425 L422,429 L447,429 L447,425 Z" fill="#464646" fill-rule="evenodd" shape-rendering="crispEdges" stroke="none" /><path d="M275,425 L275,429 L306,429 L306,425 Z" fill="#464646" fill-rule="evenodd" shape-rendering="crispEdges" stroke="none" /><path d="M875,422 L875,476 L869,476 L869,483 L875,495 L879,495 L885,483 L885,476 L879,476 L879,422 Z" fill="#464646" fill-rule="evenodd" shape-rendering="crispEdges" stroke="none" /><path d="M449,422 L449,476 L443,476 L443,483 L449,495 L453,495 L459,483 L459,476 L453,476 L453,422 Z" fill="#464646" fill-rule="evenodd" shape-rendering="crispEdges" stroke="none" /><path d="M704,353 L704,423 L708,423 L708,353 Z" fill="#464646" fill-rule="evenodd" shape-rendering="crispEdges" stroke="none" /><path d="M278,353 L278,423 L282,423 L282,357 L702,357 L702,353 Z" fill="#464646" fill-rule="evenodd" shape-rendering="crispEdges" stroke="none" /><path d="M278,326 L278,351 L282,351 L282,326 Z" fill="#464646" fill-rule="evenodd" shape-rendering="crispEdges" stroke="none" /><path d="M866,476 L866,483 L872,495 L876,495 L876,488 L870,476 Z" fill="#baf4c0" fill-rule="evenodd" shape-rendering="crispEdges" stroke="none" /><path d="M440,476 L440,483 L446,495 L450,495 L450,488 L444,476 Z" fill="#baf4c0" fill-rule="evenodd" shape-rendering="crispEdges" stroke="none" /><path d="M848,422 L848,426 L872,426 L872,477 L876,477 L876,422 Z" fill="#baf4c0" fill-rule="evenodd" shape-rendering="crispEdges" stroke="none" /><path d="M422,422 L422,426 L446,426 L446,477 L450,477 L450,422 Z" fill="#baf4c0" fill-rule="evenodd" shape-rendering="crispEdges" stroke="none" /><path d="M275,326 L275,426 L306,426 L306,422 L279,422 L279,354 L701,354 L701,426 L732,426 L732,422 L705,422 L705,350 L279,350 L279,326 Z" fill="#baf4c0" fill-rule="evenodd" shape-rendering="crispEdges" stroke="none" /><path d="M1151,1736 L1151,1739 L1569,1739 L1569,1736 Z" fill="#5a5a5a" fill-rule="evenodd" shape-rendering="crispEdges" stroke="none" /><path d="M0,1736 L0,1739 L150,1739 L150,1736 Z" fill="#ffffff" fill-rule="evenodd" shape-rendering="crispEdges" stroke="none" /><path d="M2726,0 L2726,210 L2729,210 L2729,0 Z" fill="#ffffff" fill-rule="evenodd" shape-rendering="crispEdges" stroke="none" /><path d="M2471,1736 L2471,1739 L2475,1739 L2475,1736 Z" fill="#0000a8" fill-rule="evenodd" shape-rendering="crispEdges" stroke="none" /><path d="M2438,1736 L2438,1739 L2451,1739 L2451,1736 Z" fill="#0000a8" fill-rule="evenodd" shape-rendering="crispEdges" stroke="none" /><path d="M2405,1736 L2405,1739 L2421,1739 L2421,1736 Z" fill="#0000a8" fill-rule="evenodd" shape-rendering="crispEdges" stroke="none" /><path d="M2387,1736 L2387,1739 L2403,1739 L2403,1736 Z" fill="#0000a8" fill-rule="evenodd" shape-rendering="crispEdges" stroke="none" /><path d="M2372,1736 L2372,1739 L2382,1739 L2382,1736 Z" fill="#0000a8" fill-rule="evenodd" shape-rendering="crispEdges" stroke="none" /><path d="M2357,1736 L2357,1739 L2367,1739 L2367,1736 Z" fill="#0000a8" fill-rule="evenodd" shape-rendering="crispEdges" stroke="none" /><path d="M2333,1736 L2333,1739 L2337,1739 L2337,1736 Z" fill="#0000a8" fill-rule="evenodd" shape-rendering="crispEdges" stroke="none" /><path d="M920,1736 L920,1739 L933,1739 L933,1736 Z" fill="#3e321c" fill-rule="evenodd" shape-rendering="crispEdges" stroke="none" /><path d="M884,1736 L884,1739 L888,1739 L888,1736 Z" fill="#3e321c" fill-rule="evenodd" shape-rendering="crispEdges" stroke="none" /><path d="M617,1736 L617,1739 L630,1739 L630,1736 Z" fill="#3e321c" fill-rule="evenodd" shape-rendering="crispEdges" stroke="none" /><path d="M581,1736 L581,1739 L585,1739 L585,1736 Z" fill="#3e321c" fill-rule="evenodd" shape-rendering="crispEdges" stroke="none" /><path d="M2429,1736 L2429,1739 L2433,1739 L2433,1736 Z" fill="#dddddd" fill-rule="evenodd" shape-rendering="crispEdges" stroke="none" /><path d="M2420,1736 L2420,1739 L2424,1739 L2424,1736 Z" fill="#dddddd" fill-rule="evenodd" shape-rendering="crispEdges" stroke="none" /><path d="M2354,1736 L2354,1739 L2358,1739 L2358,1736 Z" fill="#dddddd" fill-rule="evenodd" shape-rendering="crispEdges" stroke="none" /><path d="M2348,1736 L2348,1739 L2352,1739 L2352,1736 Z" fill="#dddddd" fill-rule="evenodd" shape-rendering="crispEdges" stroke="none" /><path d="M2339,1736 L2339,1739 L2343,1739 L2343,1736 Z" fill="#dddddd" fill-rule="evenodd" shape-rendering="crispEdges" stroke="none" /><path d="M269,260 L269,276 L273,276 L273,260 Z" fill="#2c2c2c" fill-rule="evenodd" shape-rendering="crispEdges" stroke="none" /><path d="M266,260 L266,276 L270,276 L270,260 Z" fill="#707070" fill-rule="evenodd" shape-rendering="crispEdges" stroke="none" /><path d="M2462,1736 L2462,1739 L2469,1739 L2469,1736 Z" fill="#e0e0e0" fill-rule="evenodd" shape-rendering="crispEdges" stroke="none" /><path d="M2453,1736 L2453,1739 L2457,1739 L2457,1736 Z" fill="#e0e0e0" fill-rule="evenodd" shape-rendering="crispEdges" stroke="none" /><path d="M2423,1736 L2423,1739 L2427,1739 L2427,1736 Z" fill="#e0e0e0" fill-rule="evenodd" shape-rendering="crispEdges" stroke="none" /><path d="M1001,1736 L1001,1739 L1005,1739 L1005,1736 Z" fill="#989898" fill-rule="evenodd" shape-rendering="crispEdges" stroke="none" /><path d="M956,1736 L956,1739 L960,1739 L960,1736 Z" fill="#989898" fill-rule="evenodd" shape-rendering="crispEdges" stroke="none" /><path d="M698,1736 L698,1739 L702,1739 L702,1736 Z" fill="#989898" fill-rule="evenodd" shape-rendering="crispEdges" stroke="none" /><path d="M653,1736 L653,1739 L657,1739 L657,1736 Z" fill="#989898" fill-rule="evenodd" shape-rendering="crispEdges" stroke="none" /><path d="M2435,1736 L2435,1739 L2439,1739 L2439,1736 Z" fill="#b9b9b9" fill-rule="evenodd" shape-rendering="crispEdges" stroke="none" /><path d="M2402,1736 L2402,1739 L2406,1739 L2406,1736 Z" fill="#b9b9b9" fill-rule="evenodd" shape-rendering="crispEdges" stroke="none" /><path d="M2366,1736 L2366,1739 L2373,1739 L2373,1736 Z" fill="#b9b9b9" fill-rule="evenodd" shape-rendering="crispEdges" stroke="none" /><path d="M1019,1736 L1019,1739 L1023,1739 L1023,1736 Z" fill="#848484" fill-rule="evenodd" shape-rendering="crispEdges" stroke="none" /><path d="M947,1736 L947,1739 L951,1739 L951,1736 Z" fill="#848484" fill-rule="evenodd" shape-rendering="crispEdges" stroke="none" /><path d="M716,1736 L716,1739 L720,1739 L720,1736 Z" fill="#848484" fill-rule="evenodd" shape-rendering="crispEdges" stroke="none" /><path d="M644,1736 L644,1739 L648,1739 L648,1736 Z" fill="#848484" fill-rule="evenodd" shape-rendering="crispEdges" stroke="none" /><path d="M992,1736 L992,1739 L996,1739 L996,1736 Z" fill="#ababab" fill-rule="evenodd" shape-rendering="crispEdges" stroke="none" /><path d="M965,1736 L965,1739 L969,1739 L969,1736 Z" fill="#ababab" fill-rule="evenodd" shape-rendering="crispEdges" stroke="none" /><path d="M689,1736 L689,1739 L693,1739 L693,1736 Z" fill="#ababab" fill-rule="evenodd" shape-rendering="crispEdges" stroke="none" /><path d="M662,1736 L662,1739 L666,1739 L666,1736 Z" fill="#ababab" fill-rule="evenodd" shape-rendering="crispEdges" stroke="none" /><path d="M995,1736 L995,1739 L999,1739 L999,1736 Z" fill="#a4a4a4" fill-rule="evenodd" shape-rendering="crispEdges" stroke="none" /><path d="M962,1736 L962,1739 L966,1739 L966,1736 Z" fill="#a4a4a4" fill-rule="evenodd" shape-rendering="crispEdges" stroke="none" /><path d="M692,1736 L692,1739 L696,1739 L696,1736 Z" fill="#a4a4a4" fill-rule="evenodd" shape-rendering="crispEdges" stroke="none" /><path d="M659,1736 L659,1739 L663,1739 L663,1736 Z" fill="#a4a4a4" fill-rule="evenodd" shape-rendering="crispEdges" stroke="none" /><path d="M983,1736 L983,1739 L987,1739 L987,1736 Z" fill="#c6c6c6" fill-rule="evenodd" shape-rendering="crispEdges" stroke="none" /><path d="M977,1736 L977,1739 L981,1739 L981,1736 Z" fill="#c6c6c6" fill-rule="evenodd" shape-rendering="crispEdges" stroke="none" /><path d="M680,1736 L680,1739 L684,1739 L684,1736 Z" fill="#c6c6c6" fill-rule="evenodd" shape-rendering="crispEdges" stroke="none" /><path d="M674,1736 L674,1739 L678,1739 L678,1736 Z" fill="#c6c6c6" fill-rule="evenodd" shape-rendering="crispEdges" stroke="none" /><path d="M2432,1736 L2432,1739 L2436,1739 L2436,1736 Z" fill="#dadada" fill-rule="evenodd" shape-rendering="crispEdges" stroke="none" /><path d="M2351,1736 L2351,1739 L2355,1739 L2355,1736 Z" fill="#dadada" fill-rule="evenodd" shape-rendering="crispEdges" stroke="none" /><path d="M2345,1736 L2345,1739 L2349,1739 L2349,1736 Z" fill="#dadada" fill-rule="evenodd" shape-rendering="crispEdges" stroke="none" /><path d="M1046,1736 L1046,1739 L1050,1739 L1050,1736 Z" fill="#636363" fill-rule="evenodd" shape-rendering="crispEdges" stroke="none" /><path d="M743,1736 L743,1739 L747,1739 L747,1736 Z" fill="#636363" fill-rule="evenodd" shape-rendering="crispEdges" stroke="none" /><path d="M1043,1736 L1043,1739 L1047,1739 L1047,1736 Z" fill="#656565" fill-rule="evenodd" shape-rendering="crispEdges" stroke="none" /><path d="M740,1736 L740,1739 L744,1739 L744,1736 Z" fill="#656565" fill-rule="evenodd" shape-rendering="crispEdges" stroke="none" /><path d="M2450,1736 L2450,1739 L2454,1739 L2454,1736 Z" fill="#dbdbdb" fill-rule="evenodd" shape-rendering="crispEdges" stroke="none" /><path d="M2426,1736 L2426,1739 L2430,1739 L2430,1736 Z" fill="#dbdbdb" fill-rule="evenodd" shape-rendering="crispEdges" stroke="none" /><path d="M2456,1736 L2456,1739 L2460,1739 L2460,1736 Z" fill="#dedede" fill-rule="evenodd" shape-rendering="crispEdges" stroke="none" /><path d="M2342,1736 L2342,1739 L2346,1739 L2346,1736 Z" fill="#dedede" fill-rule="evenodd" shape-rendering="crispEdges" stroke="none" /><path d="M1013,1736 L1013,1739 L1017,1739 L1017,1736 Z" fill="#8b8b8b" fill-rule="evenodd" shape-rendering="crispEdges" stroke="none" /><path d="M710,1736 L710,1739 L714,1739 L714,1736 Z" fill="#8b8b8b" fill-rule="evenodd" shape-rendering="crispEdges" stroke="none" /><path d="M950,1736 L950,1739 L954,1739 L954,1736 Z" fill="#8c8c8c" fill-rule="evenodd" shape-rendering="crispEdges" stroke="none" /><path d="M647,1736 L647,1739 L651,1739 L651,1736 Z" fill="#8c8c8c" fill-rule="evenodd" shape-rendering="crispEdges" stroke="none" /><path d="M959,1736 L959,1739 L963,1739 L963,1736 Z" fill="#9e9e9e" fill-rule="evenodd" shape-rendering="crispEdges" stroke="none" /><path d="M656,1736 L656,1739 L660,1739 L660,1736 Z" fill="#9e9e9e" fill-rule="evenodd" shape-rendering="crispEdges" stroke="none" /><path d="M989,1736 L989,1739 L993,1739 L993,1736 Z" fill="#b4b4b4" fill-rule="evenodd" shape-rendering="crispEdges" stroke="none" /><path d="M686,1736 L686,1739 L690,1739 L690,1736 Z" fill="#b4b4b4" fill-rule="evenodd" shape-rendering="crispEdges" stroke="none" /><path d="M968,1736 L968,1739 L972,1739 L972,1736 Z" fill="#b3b3b3" fill-rule="evenodd" shape-rendering="crispEdges" stroke="none" /><path d="M665,1736 L665,1739 L669,1739 L669,1736 Z" fill="#b3b3b3" fill-rule="evenodd" shape-rendering="crispEdges" stroke="none" /><path d="M971,1736 L971,1739 L975,1739 L975,1736 Z" fill="#bbbbbb" fill-rule="evenodd" shape-rendering="crispEdges" stroke="none" /><path d="M668,1736 L668,1739 L672,1739 L672,1736 Z" fill="#bbbbbb" fill-rule="evenodd" shape-rendering="crispEdges" stroke="none" /><path d="M986,1736 L986,1739 L990,1739 L990,1736 Z" fill="#bebebe" fill-rule="evenodd" shape-rendering="crispEdges" stroke="none" /><path d="M683,1736 L683,1739 L687,1739 L687,1736 Z" fill="#bebebe" fill-rule="evenodd" shape-rendering="crispEdges" stroke="none" /><path d="M974,1736 L974,1739 L978,1739 L978,1736 Z" fill="#c1c1c1" fill-rule="evenodd" shape-rendering="crispEdges" stroke="none" /><path d="M671,1736 L671,1739 L675,1739 L675,1736 Z" fill="#c1c1c1" fill-rule="evenodd" shape-rendering="crispEdges" stroke="none" /><path d="M2468,1736 L2468,1739 L2472,1739 L2472,1736 Z" fill="#00a0d8" fill-rule="evenodd" shape-rendering="crispEdges" stroke="none" /><path d="M2336,1736 L2336,1739 L2340,1739 L2340,1736 Z" fill="#00a0d8" fill-rule="evenodd" shape-rendering="crispEdges" stroke="none" /><path d="M2726,356 L2726,360 L2729,360 L2729,356 Z" fill="#02023d" fill-rule="evenodd" shape-rendering="crispEdges" stroke="none" /><path d="M2726,290 L2726,294 L2729,294 L2729,290 Z" fill="#02023d" fill-rule="evenodd" shape-rendering="crispEdges" stroke="none" /><path d="M941,1736 L941,1739 L945,1739 L945,1736 Z" fill="#787878" fill-rule="evenodd" shape-rendering="crispEdges" stroke="none" /><path d="M638,1736 L638,1739 L642,1739 L642,1736 Z" fill="#787878" fill-rule="evenodd" shape-rendering="crispEdges" stroke="none" /><path d="M1028,1736 L1028,1739 L1032,1739 L1032,1736 Z" fill="#7b7b7b" fill-rule="evenodd" shape-rendering="crispEdges" stroke="none" /><path d="M725,1736 L725,1739 L729,1739 L729,1736 Z" fill="#7b7b7b" fill-rule="evenodd" shape-rendering="crispEdges" stroke="none" /><path d="M1016,1736 L1016,1739 L1020,1739 L1020,1736 Z" fill="#878787" fill-rule="evenodd" shape-rendering="crispEdges" stroke="none" /><path d="M713,1736 L713,1739 L717,1739 L717,1736 Z" fill="#878787" fill-rule="evenodd" shape-rendering="crispEdges" stroke="none" /><path d="M881,1736 L881,1739 L885,1739 L885,1736 Z" fill="#83601c" fill-rule="evenodd" shape-rendering="crispEdges" stroke="none" /><path d="M578,1736 L578,1739 L582,1739 L582,1736 Z" fill="#83601c" fill-rule="evenodd" shape-rendering="crispEdges" stroke="none" /><path d="M944,1736 L944,1739 L948,1739 L948,1736 Z" fill="#7d7d7d" fill-rule="evenodd" shape-rendering="crispEdges" stroke="none" /><path d="M641,1736 L641,1739 L645,1739 L645,1736 Z" fill="#7d7d7d" fill-rule="evenodd" shape-rendering="crispEdges" stroke="none" /><path d="M1022,1736 L1022,1739 L1026,1739 L1026,1736 Z" fill="#818181" fill-rule="evenodd" shape-rendering="crispEdges" stroke="none" /><path d="M719,1736 L719,1739 L723,1739 L723,1736 Z" fill="#818181" fill-rule="evenodd" shape-rendering="crispEdges" stroke="none" /><path d="M953,1736 L953,1739 L957,1739 L957,1736 Z" fill="#929292" fill-rule="evenodd" shape-rendering="crispEdges" stroke="none" /><path d="M650,1736 L650,1739 L654,1739 L654,1736 Z" fill="#929292" fill-rule="evenodd" shape-rendering="crispEdges" stroke="none" /><path d="M1004,1736 L1004,1739 L1008,1739 L1008,1736 Z" fill="#949494" fill-rule="evenodd" shape-rendering="crispEdges" stroke="none" /><path d="M701,1736 L701,1739 L705,1739 L705,1736 Z" fill="#949494" fill-rule="evenodd" shape-rendering="crispEdges" stroke="none" /><path d="M1010,1736 L1010,1739 L1014,1739 L1014,1736 Z" fill="#8e8e8e" fill-rule="evenodd" shape-rendering="crispEdges" stroke="none" /><path d="M707,1736 L707,1739 L711,1739 L711,1736 Z" fill="#8e8e8e" fill-rule="evenodd" shape-rendering="crispEdges" stroke="none" /><path d="M1007,1736 L1007,1739 L1011,1739 L1011,1736 Z" fill="#919191" fill-rule="evenodd" shape-rendering="crispEdges" stroke="none" /><path d="M704,1736 L704,1739 L708,1739 L708,1736 Z" fill="#919191" fill-rule="evenodd" shape-rendering="crispEdges" stroke="none" /><path d="M998,1736 L998,1739 L1002,1739 L1002,1736 Z" fill="#9d9d9d" fill-rule="evenodd" shape-rendering="crispEdges" stroke="none" /><path d="M695,1736 L695,1739 L699,1739 L699,1736 Z" fill="#9d9d9d" fill-rule="evenodd" shape-rendering="crispEdges" stroke="none" /><path d="M1037,1736 L1037,1739 L1041,1739 L1041,1736 Z" fill="#6d6d6d" fill-rule="evenodd" shape-rendering="crispEdges" stroke="none" /><path d="M734,1736 L734,1739 L738,1739 L738,1736 Z" fill="#6d6d6d" fill-rule="evenodd" shape-rendering="crispEdges" stroke="none" /><path d="M1034,1736 L1034,1739 L1038,1739 L1038,1736 Z" fill="#727272" fill-rule="evenodd" shape-rendering="crispEdges" stroke="none" /><path d="M731,1736 L731,1739 L735,1739 L735,1736 Z" fill="#727272" fill-rule="evenodd" shape-rendering="crispEdges" stroke="none" /><path d="M1031,1736 L1031,1739 L1035,1739 L1035,1736 Z" fill="#777777" fill-rule="evenodd" shape-rendering="crispEdges" stroke="none" /><path d="M728,1736 L728,1739 L732,1739 L732,1736 Z" fill="#777777" fill-rule="evenodd" shape-rendering="crispEdges" stroke="none" /><path d="M1040,1736 L1040,1739 L1044,1739 L1044,1736 Z" fill="#686868" fill-rule="evenodd" shape-rendering="crispEdges" stroke="none" /><path d="M737,1736 L737,1739 L741,1739 L741,1736 Z" fill="#686868" fill-rule="evenodd" shape-rendering="crispEdges" stroke="none" /><path d="M1067,1736 L1067,1739 L1071,1739 L1071,1736 Z" fill="#606060" fill-rule="evenodd" shape-rendering="crispEdges" stroke="none" /><path d="M764,1736 L764,1739 L768,1739 L768,1736 Z" fill="#606060" fill-rule="evenodd" shape-rendering="crispEdges" stroke="none" /><path d="M1055,1736 L1055,1739 L1059,1739 L1059,1736 Z" fill="#5e5e5e" fill-rule="evenodd" shape-rendering="crispEdges" stroke="none" /><path d="M752,1736 L752,1739 L756,1739 L756,1736 Z" fill="#5e5e5e" fill-rule="evenodd" shape-rendering="crispEdges" stroke="none" /><path d="M1061,1736 L1061,1739 L1065,1739 L1065,1736 Z" fill="#5b5b5b" fill-rule="evenodd" shape-rendering="crispEdges" stroke="none" /><path d="M758,1736 L758,1739 L762,1739 L762,1736 Z" fill="#5b5b5b" fill-rule="evenodd" shape-rendering="crispEdges" stroke="none" /><path d="M1052,1736 L1052,1739 L1056,1739 L1056,1736 Z" fill="#5f5f5f" fill-rule="evenodd" shape-rendering="crispEdges" stroke="none" /><path d="M749,1736 L749,1739 L753,1739 L753,1736 Z" fill="#5f5f5f" fill-rule="evenodd" shape-rendering="crispEdges" stroke="none" /><path d="M1058,1736 L1058,1739 L1062,1739 L1062,1736 Z" fill="#5c5c5c" fill-rule="evenodd" shape-rendering="crispEdges" stroke="none" /><path d="M755,1736 L755,1739 L759,1739 L759,1736 Z" fill="#5c5c5c" fill-rule="evenodd" shape-rendering="crispEdges" stroke="none" /><path d="M1049,1736 L1049,1739 L1053,1739 L1053,1736 Z" fill="#616161" fill-rule="evenodd" shape-rendering="crispEdges" stroke="none" /><path d="M746,1736 L746,1739 L750,1739 L750,1736 Z" fill="#616161" fill-rule="evenodd" shape-rendering="crispEdges" stroke="none" /><path d="M2459,1736 L2459,1739 L2463,1739 L2463,1736 Z" fill="#e2e2e2" fill-rule="evenodd" shape-rendering="crispEdges" stroke="none" /><path d="M2726,287 L2726,291 L2729,291 L2729,287 Z" fill="#f3c4a4" fill-rule="evenodd" shape-rendering="crispEdges" stroke="none" /><path d="M2381,1736 L2381,1739 L2385,1739 L2385,1736 Z" fill="#d6d6d6" fill-rule="evenodd" shape-rendering="crispEdges" stroke="none" /><path d="M2384,1736 L2384,1739 L2388,1739 L2388,1736 Z" fill="#d8d8d8" fill-rule="evenodd" shape-rendering="crispEdges" stroke="none" /><path d="M2726,1349 L2726,1353 L2729,1353 L2729,1349 Z" fill="#6868ec" fill-rule="evenodd" shape-rendering="crispEdges" stroke="none" /><path d="M2726,353 L2726,357 L2729,357 L2729,353 Z" fill="#61f6ed" fill-rule="evenodd" shape-rendering="crispEdges" stroke="none" /><path d="M2726,1157 L2726,1161 L2729,1161 L2729,1157 Z" fill="#54541c" fill-rule="evenodd" shape-rendering="crispEdges" stroke="none" /><path d="M2726,1154 L2726,1158 L2729,1158 L2729,1154 Z" fill="#54fc54" fill-rule="evenodd" shape-rendering="crispEdges" stroke="none" /><path d="M2726,1352 L2726,1356 L2729,1356 L2729,1352 Z" fill="#000068" fill-rule="evenodd" shape-rendering="crispEdges" stroke="none" /><g id="overlay-black-top"><g><g><path d="M668,788 L668,846 L690,846 L690,788 Z M672,841 L673,840 L674,841 L673,842 Z M675,838 L676,837 L677,838 L676,839 Z M678,835 L679,834 L680,835 L679,836 Z M681,832 L682,831 L683,832 L682,833 Z M684,829 L685,828 L686,829 L685,830 Z M672,823 L673,822 L674,823 L673,824 Z M675,820 L676,819 L677,820 L676,821 Z M678,817 L679,816 L680,817 L679,818 Z M681,814 L682,813 L683,814 L682,815 Z M684,811 L685,810 L686,811 L685,812 Z M672,805 L673,804 L674,805 L673,806 Z M675,802 L676,801 L677,802 L676,803 Z M678,799 L679,798 L680,799 L679,800 Z M681,796 L682,795 L683,796 L682,797 Z M684,793 L685,792 L686,793 L685,794 Z" fill="#00a8a8" fill-rule="evenodd" shape-rendering="crispEdges" stroke="none" /></g><g><path d="M683,827 L671,839 L671,843 L675,843 L687,831 L687,827 Z" fill="#000000" fill-rule="evenodd" shape-rendering="crispEdges" stroke="none" /><path d="M683,809 L671,821 L671,825 L675,825 L687,813 L687,809 Z" fill="#000000" fill-rule="evenodd" shape-rendering="crispEdges" stroke="none" /><path d="M683,791 L671,803 L671,807 L675,807 L687,795 L687,791 Z" fill="#000000" fill-rule="evenodd" shape-rendering="crispEdges" stroke="none" /><path d="M668,785 L665,788 L665,846 L668,849 L690,849 L693,846 L693,788 L690,785 Z M669,789 L689,789 L689,845 L669,845 Z" fill="#000000" fill-rule="evenodd" shape-rendering="crispEdges" stroke="none" /></g></g><g><g><path d="M776,785 L770,788 L767,791 L764,797 L764,806 L752,806 L752,819 L786,819 L792,816 L795,813 L798,807 L798,797 L795,791 L792,788 L786,785 Z M768,814 L769,813 L770,814 L769,815 Z M765,808 L766,807 L767,808 L767,811 L766,812 L765,811 Z" fill="#00a8a8" fill-rule="evenodd" shape-rendering="crispEdges" stroke="none" /></g><g><path d="M776,782 L770,785 L764,791 L761,797 L761,803 L749,803 L749,822 L786,822 L792,819 L798,813 L801,807 L801,797 L798,791 L792,785 L786,782 Z M777,786 L785,786 L791,789 L794,792 L797,798 L797,806 L794,812 L791,815 L785,818 L753,818 L753,807 L764,807 L767,813 L768,812 L765,806 L765,798 L768,792 L771,789 Z" fill="#000000" fill-rule="evenodd" shape-rendering="crispEdges" stroke="none" /></g></g><g><g><path d="M776,740 L770,743 L767,746 L764,752 L764,761 L752,761 L752,774 L786,774 L792,771 L795,768 L798,762 L798,752 L795,746 L792,743 L786,740 Z M768,769 L769,768 L770,769 L769,770 Z M765,763 L766,762 L767,763 L767,766 L766,767 L765,766 Z" fill="#00a8a8" fill-rule="evenodd" shape-rendering="crispEdges" stroke="none" /></g><g><path d="M776,737 L770,740 L764,746 L761,752 L761,758 L749,758 L749,777 L786,777 L792,774 L798,768 L801,762 L801,752 L798,746 L792,740 L786,737 Z M777,741 L785,741 L791,744 L794,747 L797,753 L797,761 L794,767 L791,770 L785,773 L753,773 L753,762 L764,762 L767,768 L768,767 L765,761 L765,753 L768,747 L771,744 Z" fill="#000000" fill-rule="evenodd" shape-rendering="crispEdges" stroke="none" /></g></g><g><g><path d="M776,695 L770,698 L767,701 L764,707 L764,716 L752,716 L752,729 L786,729 L792,726 L795,723 L798,717 L798,707 L795,701 L792,698 L786,695 Z M768,724 L769,723 L770,724 L769,725 Z M765,718 L766,717 L767,718 L767,721 L766,722 L765,721 Z" fill="#00a8a8" fill-rule="evenodd" shape-rendering="crispEdges" stroke="none" /></g><g><path d="M776,692 L770,695 L764,701 L761,707 L761,713 L749,713 L749,732 L786,732 L792,729 L798,723 L801,717 L801,707 L798,701 L792,695 L786,692 Z M777,696 L785,696 L791,699 L794,702 L797,708 L797,716 L794,722 L791,725 L785,728 L753,728 L753,717 L764,717 L767,723 L768,722 L765,716 L765,708 L768,702 L771,699 Z" fill="#000000" fill-rule="evenodd" shape-rendering="crispEdges" stroke="none" /></g></g><g><g><path d="M590,668 L590,780 L690,780 L690,668 Z M657,678 L674,678 L674,770 L657,770 Z" fill="#c7c7c7" fill-rule="evenodd" shape-rendering="crispEdges" stroke="none" /><path d="M659,680 L659,768 L672,768 L672,680 Z M663,684 L668,684 L668,764 L663,764 Z" fill="#54fcfc" fill-rule="evenodd" shape-rendering="crispEdges" stroke="none" /></g><g><path d="M662,683 L662,765 L669,765 L669,683 Z" fill="#000000" fill-rule="evenodd" shape-rendering="crispEdges" stroke="none" /><path d="M656,677 L656,771 L675,771 L675,677 Z M660,681 L671,681 L671,767 L660,767 Z" fill="#000000" fill-rule="evenodd" shape-rendering="crispEdges" stroke="none" /><path d="M587,665 L587,783 L693,783 L693,665 Z M591,669 L689,669 L689,779 L591,779 Z" fill="#000000" fill-rule="evenodd" shape-rendering="crispEdges" stroke="none" /></g></g><g><g><path d="M776,650 L770,653 L767,656 L764,662 L764,671 L752,671 L752,684 L786,684 L792,681 L795,678 L798,672 L798,662 L795,656 L792,653 L786,650 Z M768,679 L769,678 L770,679 L769,680 Z M765,673 L766,672 L767,673 L767,676 L766,677 L765,676 Z" fill="#00a8a8" fill-rule="evenodd" shape-rendering="crispEdges" stroke="none" /></g><g><path d="M776,647 L770,650 L764,656 L761,662 L761,668 L749,668 L749,687 L786,687 L792,684 L798,678 L801,672 L801,662 L798,656 L792,650 L786,647 Z M777,651 L785,651 L791,654 L794,657 L797,663 L797,671 L794,677 L791,680 L785,683 L753,683 L753,672 L764,672 L767,678 L768,677 L765,671 L765,663 L768,657 L771,654 Z" fill="#000000" fill-rule="evenodd" shape-rendering="crispEdges" stroke="none" /></g></g><g><g><path d="M929,497 L929,606 L977,630 L987,630 L1029,609 L1040,609 L1082,630 L1092,630 L1134,609 L1137,606 L1137,497 Z" fill="#c8c8c8" fill-rule="evenodd" shape-rendering="crispEdges" stroke="none" /><path d="M827,497 L827,606 L830,609 L872,630 L882,630 L924,609 L927,606 L927,497 Z M894,507 L911,507 L911,596 L894,596 Z" fill="#c8c8c8" fill-rule="evenodd" shape-rendering="crispEdges" stroke="none" /><path d="M896,509 L896,594 L909,594 L909,509 Z M900,513 L905,513 L905,590 L900,590 Z" fill="#54fcfc" fill-rule="evenodd" shape-rendering="crispEdges" stroke="none" /></g><g><path d="M899,512 L899,591 L906,591 L906,512 Z" fill="#000000" fill-rule="evenodd" shape-rendering="crispEdges" stroke="none" /><path d="M893,506 L893,597 L912,597 L912,506 Z M897,510 L908,510 L908,593 L897,593 Z" fill="#000000" fill-rule="evenodd" shape-rendering="crispEdges" stroke="none" /><path d="M824,494 L824,609 L872,633 L882,633 L924,612 L935,612 L977,633 L987,633 L1029,612 L1040,612 L1082,633 L1092,633 L1140,609 L1140,494 Z M930,498 L1136,498 L1136,605 L1133,608 L1091,629 L1083,629 L1041,608 L1028,605 L1028,608 L986,629 L978,629 L930,605 Z M828,498 L926,498 L926,605 L923,608 L881,629 L873,629 L831,608 L828,605 Z" fill="#000000" fill-rule="evenodd" shape-rendering="crispEdges" stroke="none" /></g></g><g><g><path d="M383,497 L383,609 L386,612 L440,630 L456,630 L510,612 L513,609 L513,578 L441,577 L513,576 L513,533 L441,532 L513,531 L513,497 Z M438,574 L439,573 L440,574 L439,575 Z M435,571 L436,570 L437,571 L436,572 Z M429,543 L432,543 L432,541 L433,540 L434,541 L437,543 L446,546 L456,546 L465,543 L479,543 L488,546 L494,552 L494,557 L488,563 L479,566 L465,566 L456,563 L446,563 L437,566 L434,568 L433,569 L432,568 L432,566 L429,566 L429,563 L426,563 L426,546 L429,546 Z M435,538 L436,537 L437,538 L436,539 Z M438,535 L439,534 L440,535 L439,536 Z M396,507 L413,507 L413,599 L396,599 Z" fill="#c8c8c8" fill-rule="evenodd" shape-rendering="crispEdges" stroke="none" /><path d="M428,545 L428,564 L438,564 L447,561 L455,561 L464,564 L480,564 L489,561 L492,558 L492,551 L489,548 L480,545 L464,545 L455,548 L447,548 L438,545 Z" fill="#54fcfc" fill-rule="evenodd" shape-rendering="crispEdges" stroke="none" /><path d="M398,509 L398,597 L411,597 L411,509 Z M402,513 L407,513 L407,593 L402,593 Z" fill="#54fcfc" fill-rule="evenodd" shape-rendering="crispEdges" stroke="none" /></g><g><path d="M401,512 L401,594 L408,594 L408,512 Z" fill="#000000" fill-rule="evenodd" shape-rendering="crispEdges" stroke="none" /><path d="M395,506 L395,600 L414,600 L414,506 Z M399,510 L410,510 L410,596 L399,596 Z" fill="#000000" fill-rule="evenodd" shape-rendering="crispEdges" stroke="none" /><path d="M380,494 L380,612 L386,615 L440,633 L456,633 L510,615 L516,612 L516,494 Z M429,546 L437,546 L446,549 L456,549 L465,546 L479,546 L488,549 L491,552 L491,557 L488,560 L479,563 L465,563 L456,560 L446,560 L437,563 L429,563 Z M438,537 L441,537 L441,534 L512,534 L512,575 L441,575 L441,572 L438,572 L438,569 L436,569 L435,568 L436,567 L438,564 L447,561 L455,561 L464,564 L480,567 L480,564 L489,561 L492,558 L492,551 L489,548 L480,545 L464,542 L464,545 L455,548 L447,548 L438,545 L436,542 L435,541 L436,540 L438,540 Z M384,498 L512,498 L512,530 L440,530 L440,533 L428,545 L425,564 L428,564 L440,576 L512,579 L512,608 L509,611 L455,629 L441,629 L387,611 L384,608 Z" fill="#000000" fill-rule="evenodd" shape-rendering="crispEdges" stroke="none" /></g></g><g><g><path d="M734,422 L734,429 L846,429 L846,422 Z" fill="#54fcfc" fill-rule="evenodd" shape-rendering="crispEdges" stroke="none" /></g><g><path d="M731,419 L731,432 L849,432 L849,419 Z M735,423 L845,423 L845,428 L735,428 Z" fill="#020202" fill-rule="evenodd" shape-rendering="crispEdges" stroke="none" /></g></g><g><g><path d="M308,422 L308,429 L420,429 L420,422 Z" fill="#54fcfc" fill-rule="evenodd" shape-rendering="crispEdges" stroke="none" /></g><g><path d="M305,419 L305,432 L423,432 L423,419 Z M309,423 L419,423 L419,428 L309,428 Z" fill="#020202" fill-rule="evenodd" shape-rendering="crispEdges" stroke="none" /></g></g><g><g><path d="M734,374 L734,411 L846,411 L846,374 Z" fill="#696969" fill-rule="evenodd" shape-rendering="crispEdges" stroke="none" /></g><g><path d="M731,371 L731,414 L849,414 L849,371 Z M735,375 L845,375 L845,410 L735,410 Z" fill="#020202" fill-rule="evenodd" shape-rendering="crispEdges" stroke="none" /></g></g><g><g><path d="M308,374 L308,411 L420,411 L420,374 Z" fill="#696969" fill-rule="evenodd" shape-rendering="crispEdges" stroke="none" /></g><g><path d="M305,371 L305,414 L423,414 L423,371 Z M309,375 L419,375 L419,410 L309,410 Z" fill="#020202" fill-rule="evenodd" shape-rendering="crispEdges" stroke="none" /></g></g><g><g><path d="M263,278 L257,281 L254,284 L251,290 L251,300 L254,306 L257,309 L263,312 L272,312 L272,324 L285,324 L285,290 L282,284 L279,281 L273,278 Z M273,310 L274,309 L277,309 L278,310 L277,311 L274,311 Z M279,307 L280,306 L281,307 L280,308 Z" fill="#00a8a8" fill-rule="evenodd" shape-rendering="crispEdges" stroke="none" /></g><g><path d="M263,275 L257,278 L251,284 L248,290 L248,300 L251,306 L257,312 L263,315 L269,315 L269,327 L288,327 L288,290 L285,284 L279,278 L273,275 Z M264,279 L272,279 L278,282 L281,285 L284,291 L284,323 L273,323 L273,312 L279,309 L278,308 L272,311 L264,311 L258,308 L255,305 L252,299 L252,291 L255,285 L258,282 Z" fill="#000000" fill-rule="evenodd" shape-rendering="crispEdges" stroke="none" /></g></g><g><g><path d="M257,221 L257,225 L263,237 L263,242 L257,254 L257,258 L279,258 L279,254 L273,242 L273,237 L279,225 L279,221 Z" fill="#00a8a8" fill-rule="evenodd" shape-rendering="crispEdges" stroke="none" /></g><g><path d="M254,218 L254,225 L260,237 L260,242 L254,254 L254,261 L282,261 L282,254 L276,242 L276,237 L282,225 L282,218 Z M258,223 L259,222 L277,222 L278,223 L277,224 L275,230 L272,236 L272,243 L275,249 L277,255 L278,256 L277,257 L259,257 L258,256 L259,255 L261,249 L264,243 L264,236 L261,230 L259,224 Z" fill="#000000" fill-rule="evenodd" shape-rendering="crispEdges" stroke="none" /></g></g><path d="M1805,1736 L1805,1739 L1809,1739 L1809,1736 Z" fill="#000000" fill-rule="evenodd" shape-rendering="crispEdges" stroke="none" /><path d="M1754,1736 L1754,1739 L1758,1739 L1758,1736 Z" fill="#000000" fill-rule="evenodd" shape-rendering="crispEdges" stroke="none" /><path d="M1568,1736 L1568,1739 L1572,1739 L1572,1736 Z" fill="#000000" fill-rule="evenodd" shape-rendering="crispEdges" stroke="none" /><path d="M1148,1736 L1148,1739 L1152,1739 L1152,1736 Z" fill="#000000" fill-rule="evenodd" shape-rendering="crispEdges" stroke="none" /><path d="M1064,1736 L1064,1739 L1068,1739 L1068,1736 Z" fill="#000000" fill-rule="evenodd" shape-rendering="crispEdges" stroke="none" /><path d="M938,1736 L938,1739 L942,1739 L942,1736 Z" fill="#000000" fill-rule="evenodd" shape-rendering="crispEdges" stroke="none" /><path d="M761,1736 L761,1739 L765,1739 L765,1736 Z" fill="#000000" fill-rule="evenodd" shape-rendering="crispEdges" stroke="none" /><path d="M635,1736 L635,1739 L639,1739 L639,1736 Z" fill="#000000" fill-rule="evenodd" shape-rendering="crispEdges" stroke="none" /><path d="M2726,1568 L2726,1572 L2729,1572 L2729,1568 Z" fill="#000000" fill-rule="evenodd" shape-rendering="crispEdges" stroke="none" /><path d="M2726,1544 L2726,1548 L2729,1548 L2729,1544 Z" fill="#000000" fill-rule="evenodd" shape-rendering="crispEdges" stroke="none" /><path d="M2726,839 L2726,858 L2729,858 L2729,839 Z" fill="#000000" fill-rule="evenodd" shape-rendering="crispEdges" stroke="none" /><path d="M2726,818 L2726,822 L2729,822 L2729,818 Z" fill="#000000" fill-rule="evenodd" shape-rendering="crispEdges" stroke="none" /><path d="M2726,803 L2726,807 L2729,807 L2729,803 Z" fill="#000000" fill-rule="evenodd" shape-rendering="crispEdges" stroke="none" /><path d="M2726,791 L2726,795 L2729,795 L2729,791 Z" fill="#000000" fill-rule="evenodd" shape-rendering="crispEdges" stroke="none" /><path d="M2726,269 L2726,279 L2729,279 L2729,269 Z" fill="#020202" fill-rule="evenodd" shape-rendering="crispEdges" stroke="none" /><path d="M2726,251 L2726,261 L2729,261 L2729,251 Z" fill="#020202" fill-rule="evenodd" shape-rendering="crispEdges" stroke="none" /></g></svg>